<?xml version="1.0" encoding="iso-8859-1"?>
<!-- Uploaded to: SVG Repo, www.svgrepo.com, Generator: SVG Repo Mixer Tools -->
<!DOCTYPE svg PUBLIC "-//W3C//DTD SVG 1.1//EN" "http://www.w3.org/Graphics/SVG/1.1/DTD/svg11.dtd">
<svg fill="#FFF" version="1.1" id="Capa_1" xmlns="http://www.w3.org/2000/svg" xmlns:xlink="http://www.w3.org/1999/xlink" 
	 width="800px" height="800px" viewBox="0 0 95.098 95.098"
	 xml:space="preserve">
<g>
	<path d="M92.961,0H2.137C0.957,0,0,0.957,0,2.137v90.824c0,1.18,0.957,2.137,2.137,2.137h90.824c1.18,0,2.137-0.957,2.137-2.137
		V2.137C95.098,0.957,94.141,0,92.961,0z M52.656,81.535c0,0.816-0.662,1.479-1.479,1.479h-7.27c-0.816,0-1.479-0.662-1.479-1.479
		v-6.531c0-0.816,0.662-1.479,1.479-1.479h7.27c0.817,0,1.479,0.662,1.479,1.479V81.535z M60.609,50.137
		c-4.313,3.693-7.722,6.609-7.885,16.12c-0.014,0.808-0.672,1.454-1.479,1.454h-7.396c-0.396,0-0.776-0.159-1.054-0.441
		c-0.278-0.281-0.432-0.664-0.426-1.06c0.218-14.275,6.743-19.858,11.506-23.935c3.646-3.122,5.125-4.542,5.125-8.378
		c0-6.319-5.143-11.46-11.461-11.46c-6.072,0-11.099,4.746-11.441,10.805c-0.045,0.783-0.692,1.395-1.477,1.395h-7.402
		c-0.401,0-0.785-0.164-1.064-0.452c-0.278-0.289-0.428-0.679-0.413-1.08c0.424-11.787,9.999-21.02,21.798-21.02
		c12.026,0,21.813,9.785,21.813,21.812C69.355,42.652,64.506,46.802,60.609,50.137z"/>
</g>
</svg>